# xmcd
#
# Track frame offsets:
#	150
#	20519
#	43659
#	60409
#	79137
#	101776
#	127215
#	145467
#	165677
#	184204
#	204896
#
# Disc length: 3059 seconds
#
# Revision: 0
# Processed by: cddbd v1.5.2PL0 Copyright (c) Steve Scherf et al.
# Submitted via: EasyCDDAExtractor 10.0.2.1
#
DISCID=9c0bf10b
DTITLE=Rooster - Ruff Time
DYEAR=2013
DGENRE=Blues
TTITLE0=Big Fat Mama
TTITLE1=Hot Summer Night
TTITLE2=Better Way to You
TTITLE3=Ouhee Baby (By My Side)
TTITLE4=Its a Long Hard Road 
TTITLE5=My Baby Got a Rough Time
TTITLE6=Feelings are the Key
TTITLE7=My Dirty Blues
TTITLE8=Soul Sister
TTITLE9=Spirit of God
TTITLE10=Its a Long Hard Road (Bonus Track)
EXTD=
EXTT0=
EXTT1=
EXTT2=
EXTT3=
EXTT4=
EXTT5=
EXTT6=
EXTT7=
EXTT8=
EXTT9=
EXTT10=
PLAYORDER=
